<svg width="2958" height="602" viewBox="0 0 2958 602" fill="none" xmlns="http://www.w3.org/2000/svg">
<path d="M738.531 501.547H756.218V536.09H793.559V501.547H811.246V586.969H793.559V552.328H756.218V586.969H738.531V501.547Z" fill="white"/>
<path d="M874.473 501.547L907.057 586.969H888.124L857.017 505.352H869.584L838.707 586.969H819.773L852.127 501.547H874.473ZM836.64 571.354V555.247H889.239V571.354H836.64Z" fill="white"/>
<path d="M1013.6 501.547V586.969H995.918V515.358L1000.68 515.587L972.981 586.969H956.64L929.044 515.85L933.671 515.489V587.002H915.984V501.58H941.48L971.636 579.785H958.084L988.108 501.58H1013.6V501.547Z" fill="white"/>
<path d="M1077.2 501.547L1109.78 586.969H1090.85L1059.74 505.352H1072.31L1041.43 586.969H1022.5L1054.85 501.547H1077.2ZM1039.37 571.354V555.247H1091.97V571.354H1039.37Z" fill="white"/>
<path d="M1118.34 501.547H1136.03V536.09H1173.37V501.547H1191.06V586.969H1173.37V552.328H1136.03V586.969H1118.34V501.547Z" fill="white"/>
<path d="M1260.52 501.547V517.424H1213.3L1222.46 509.486V586.969H1204.77V501.547H1260.56H1260.52Z" fill="white"/>
<path d="M1304.6 501.547L1337.18 586.969H1318.25L1287.14 505.352H1299.71L1268.83 586.969H1249.9L1282.25 501.547H1304.6ZM1266.76 571.354V555.247H1319.36V571.354H1266.76Z" fill="white"/>
<path d="M1345.71 501.547H1363.4V536.09H1400.74V501.547H1418.43V586.969H1400.74V552.328H1363.4V586.969H1345.71V501.547Z" fill="white"/>
<path d="M361.108 361.009L300.961 300.847L361.108 240.717V120.555L180.766 300.847L361.108 481.171V361.009Z" fill="white"/>
<path d="M0 0V601.695H601.864V0H0ZM515.892 515.748H85.9711V85.9798H515.892V515.748Z" fill="white"/>
<path d="M931.342 17.7826C946.567 22.3424 960.25 28.772 972.424 37.0715C984.598 45.3709 995.262 55.1794 1004.38 66.5297C1013.51 77.8799 1020.86 90.444 1026.37 104.287L956.214 131.252C953.458 123.511 949.652 116.523 944.795 110.29C939.939 104.058 934.426 98.6778 928.192 94.118C921.957 89.5582 914.902 86.0154 907.027 83.5222C899.152 81.0291 890.916 79.7826 882.318 79.7826C870.965 79.7826 860.465 81.9149 850.785 86.2122C841.105 90.5096 832.737 96.2503 825.682 103.434C818.628 110.619 813.082 119.148 809.079 128.956C805.076 138.765 803.074 149.229 803.074 160.284C803.074 171.339 805.076 181.804 809.079 191.612C813.082 201.421 818.628 209.95 825.682 217.134C832.737 224.318 841.105 230.059 850.785 234.356C860.465 238.653 870.965 240.786 882.318 240.786C891.178 240.786 899.48 239.605 907.224 237.243C914.968 234.881 921.957 231.568 928.192 227.27C934.426 222.973 939.873 217.724 944.598 211.491C949.291 205.259 953.163 198.14 956.214 190.136L1026.37 217.101C1020.82 230.944 1013.51 243.508 1004.38 254.859C995.262 266.209 984.598 275.952 972.424 284.12C960.25 292.288 946.534 298.587 931.342 303.015C916.116 307.444 899.808 309.642 882.351 309.642C859.644 309.642 838.644 305.705 819.251 297.832C799.891 289.959 783.222 279.232 769.243 265.684C755.265 252.136 744.469 236.291 736.857 218.184C729.244 200.076 725.438 180.787 725.438 160.317C725.438 139.847 729.244 120.558 736.857 102.45C744.469 84.3423 755.265 68.4979 769.243 54.9498C783.222 41.4017 799.891 30.6746 819.251 22.8016C838.611 14.9286 859.644 10.9922 882.351 10.9922C899.775 10.9922 916.116 13.2885 931.342 17.8483V17.7826Z" fill="white"/>
<path d="M1074.51 263.193L1237.2 15.0625H1312.31V305.511H1234.7V53.2465L1290.75 59.053L1129.31 305.511H1054.2V15.0625H1132.23V265.687L1074.54 263.193H1074.51Z" fill="white"/>
<path d="M1358.84 15.0625H1436.87V126.269H1541.87V15.0625H1619.9V305.511H1541.87V195.158H1436.87V305.511H1358.84V15.0625Z" fill="white"/>
<path d="M1665.12 305.511V15.0625H1882.18V81.4582H1743.15V129.582H1868.49V190.565H1743.15V239.115H1882.18V305.511H1665.12Z" fill="white"/>
<path d="M2054.84 15.0625C2069.77 15.0625 2083.62 16.8667 2096.35 20.4423C2109.08 24.0508 2120.14 29.7915 2129.56 37.6645C2138.97 45.5376 2146.36 55.5757 2151.77 67.746C2157.15 79.9164 2159.88 94.5799 2159.88 111.736C2159.88 130.566 2156.89 146.181 2150.95 158.614C2145.01 171.047 2137.1 181.019 2127.29 188.498C2117.48 195.978 2106.26 201.226 2093.66 204.277C2081.06 207.328 2068.13 208.837 2054.84 208.837H1958.56V142.441H2045.32C2051.39 142.441 2056.81 141.752 2061.5 140.375C2066.19 138.997 2070 136.996 2072.92 134.371C2075.84 131.747 2078.1 128.499 2079.78 124.629C2081.45 120.758 2082.27 116.46 2082.27 111.769C2082.27 101.797 2079.02 94.2846 2072.53 89.1672C2066.03 84.0497 2056.97 81.491 2045.36 81.491H1966.51L2002.6 42.9132V305.544H1924.57V15.0953H2054.91L2054.84 15.0625Z" fill="white"/>
<path d="M2385.21 15.0625V81.4582H2227.9L2267.73 46.1937V305.511H2189.7V15.0625H2385.17H2385.21Z" fill="white"/>
<path d="M2439.58 263.193L2602.27 15.0625H2677.38V305.511H2599.77V53.2465L2655.82 59.053L2494.38 305.511H2419.27V15.0625H2497.3V265.687L2439.61 263.193H2439.58Z" fill="white"/>
<path d="M2866.64 194.337L2799.41 305.544H2713.08L2779.89 194.337H2866.64ZM2824.74 15.0953H2957.14V305.544H2879.54V42.9132L2915.64 81.491H2836.36C2823.63 81.491 2813.95 84.0497 2807.32 89.1672C2800.69 94.2846 2797.34 101.83 2797.34 111.769C2797.34 116.46 2798.1 120.758 2799.64 124.629C2801.15 128.499 2803.51 131.747 2806.69 134.371C2809.88 136.996 2813.95 138.997 2818.93 140.375C2823.92 141.752 2829.73 142.441 2836.36 142.441H2923.51V208.837H2824.74C2811.75 208.837 2798.85 207.328 2786.15 204.277C2773.42 201.226 2762.13 195.978 2752.32 188.498C2742.51 181.019 2734.6 171.079 2728.66 158.614C2722.73 146.181 2719.74 130.533 2719.74 111.736C2719.74 94.5799 2722.43 79.9164 2727.84 67.746C2733.23 55.5757 2740.64 45.5376 2750.06 37.6645C2759.48 29.7915 2770.6 24.0508 2783.46 20.4423C2796.33 16.8667 2810.07 15.0625 2824.77 15.0625L2824.74 15.0953Z" fill="white"/>
<path d="M786.37 410.345H760.841V442.165H738.43V358.744H760.841V390.564H786.37V410.345ZM760.513 400.438H787.354L817.871 442.165H791.03L760.513 400.438ZM761.957 400.438L789.258 358.711H814.655L787.354 400.438H761.957Z" fill="white"/>
<path d="M812.586 400.472C812.586 394.6 813.702 389.056 815.933 383.84C818.164 378.624 821.249 374.097 825.219 370.194C829.19 366.29 833.947 363.206 839.46 360.943C844.973 358.679 851.043 357.531 857.639 357.531C864.234 357.531 870.403 358.679 875.883 360.943C881.363 363.206 886.121 366.29 890.124 370.194C894.127 374.097 897.245 378.624 899.476 383.84C901.707 389.056 902.823 394.6 902.823 400.472C902.823 406.344 901.707 411.888 899.476 417.104C897.245 422.32 894.127 426.847 890.124 430.75C886.121 434.654 881.363 437.738 875.883 440.001C870.403 442.265 864.333 443.413 857.639 443.413C850.945 443.413 844.973 442.265 839.46 440.001C833.947 437.738 829.19 434.654 825.219 430.75C821.249 426.847 818.131 422.32 815.933 417.104C813.702 411.888 812.586 406.344 812.586 400.472ZM880.411 400.603C880.411 397.421 879.853 394.403 878.738 391.549C877.622 388.695 876.047 386.235 874.013 384.168C871.978 382.102 869.55 380.461 866.728 379.215C863.906 377.968 860.854 377.378 857.606 377.378C854.357 377.378 851.175 378.001 848.353 379.215C845.531 380.461 843.135 382.102 841.199 384.168C839.263 386.235 837.721 388.695 836.605 391.484C835.49 394.305 834.932 397.29 834.932 400.472C834.932 403.654 835.49 406.639 836.605 409.46C837.721 412.282 839.263 414.709 841.265 416.776C843.266 418.842 845.662 420.483 848.484 421.729C851.306 422.976 854.39 423.566 857.737 423.566C861.084 423.566 864.136 422.943 866.925 421.729C869.714 420.483 872.077 418.842 874.078 416.776C876.08 414.709 877.622 412.282 878.738 409.46C879.853 406.639 880.411 403.687 880.411 400.57V400.603Z" fill="white"/>
<path d="M912.146 442.165H904.992V423.335H909.389C911.063 423.335 912.375 423.007 913.392 422.318C914.377 421.629 915.164 420.776 915.788 419.694C916.378 418.611 916.772 417.398 916.969 416.053C917.166 414.708 917.264 413.396 917.264 412.116V358.711H984.499V442.132H962.088V367.404L973.178 378.492H928.585L939.676 367.404V414.019C939.676 423.729 937.477 430.815 933.113 435.342C928.749 439.868 921.76 442.132 912.113 442.132L912.146 442.165Z" fill="white"/>
<path d="M1002.51 442.165H995.359V423.335H999.756C1001.43 423.335 1002.74 423.007 1003.76 422.318C1004.74 421.629 1005.53 420.776 1006.16 419.694C1006.75 418.611 1007.14 417.398 1007.34 416.053C1007.53 414.708 1007.63 413.396 1007.63 412.116V358.711H1074.87V442.132H1052.45V367.404L1063.55 378.492H1018.95L1030.04 367.404V414.019C1030.04 423.729 1027.84 430.815 1023.48 435.342C1019.12 439.868 1012.13 442.132 1002.48 442.132L1002.51 442.165Z" fill="white"/>
<path d="M1087.89 442.163V358.742H1150.24V377.801H1110.3V391.612H1146.3V409.129H1110.3V423.071H1150.24V442.131H1087.89V442.163Z" fill="white"/>
<path d="M1160.97 423.104H1252.19V454.104H1234.67L1232.27 442.196H1181.02L1178.62 454.104H1161.1L1160.97 423.104ZM1162.77 437.899V423.104H1164.81C1167.2 423.104 1169.11 422.776 1170.58 422.087C1172.06 421.398 1173.18 420.545 1173.93 419.528C1174.68 418.511 1175.18 417.298 1175.41 415.953C1175.64 414.608 1175.77 413.197 1175.77 411.787V358.742H1243V442.163H1220.59V367.435L1231.68 378.523H1186.96L1198.05 367.435V410.212C1198.05 415.067 1197.36 419.2 1195.95 422.678C1194.57 426.122 1192.54 429.009 1189.94 431.272C1187.32 433.536 1184.14 435.209 1180.33 436.291C1176.56 437.374 1172.29 437.899 1167.5 437.899H1162.74H1162.77Z" fill="white"/>
<path d="M1314.76 400.469L1284.47 442.196H1258.12L1288.28 400.469H1314.76ZM1313.58 400.469H1288.31L1261.37 358.742H1286.64L1313.58 400.469ZM1351.38 410.376H1332.55V442.196H1310.13V410.376H1291.3V390.595H1310.13V358.775H1332.55V390.595H1351.38V410.376ZM1328.02 400.469H1354.5L1384.65 442.196H1358.17L1328.02 400.469ZM1329.2 400.469L1356.14 358.742H1381.4L1354.47 400.469H1329.2Z" fill="white"/>
<path d="M1409.92 442.163V358.742H1432.2V423.104H1456.52V358.742H1478.8V442.163H1409.89H1409.92ZM1460.13 423.104H1487.2V454.104H1469.81L1467.77 442.196H1460.13V423.137V423.104Z" fill="white"/>
<path d="M1503.87 430.026L1550.6 358.742H1572.19V442.163H1549.91V369.699L1566.02 371.372L1519.65 442.163H1498.06V358.742H1520.47V430.747L1503.9 430.026H1503.87Z" fill="white"/>
<path d="M1584.09 400.207C1584.09 393.843 1585.37 388.561 1587.9 384.362C1590.43 380.163 1593.58 376.785 1597.25 374.226C1600.96 371.7 1604.86 369.863 1609 368.813C1613.13 367.731 1616.84 367.206 1620.09 367.206H1650.84C1654.02 367.206 1657.69 367.731 1661.86 368.813C1666.03 369.896 1669.93 371.7 1673.61 374.226C1677.25 376.785 1680.37 380.131 1682.89 384.362C1685.42 388.561 1686.7 393.876 1686.7 400.207C1686.7 406.538 1685.42 411.852 1682.89 416.051C1680.34 420.25 1677.25 423.629 1673.61 426.188C1669.97 428.746 1666.03 430.551 1661.86 431.6C1657.69 432.683 1654.02 433.208 1650.84 433.208H1620.09C1616.84 433.208 1613.13 432.683 1609 431.6C1604.86 430.518 1600.96 428.714 1597.25 426.188C1593.54 423.662 1590.43 420.283 1587.9 416.051C1585.34 411.852 1584.09 406.571 1584.09 400.207ZM1606.51 400.207C1606.51 402.044 1606.87 403.782 1607.59 405.455C1608.31 407.128 1609.33 408.605 1610.67 409.917C1612.02 411.229 1613.63 412.246 1615.5 413C1617.37 413.755 1619.43 414.149 1621.76 414.149H1649.06C1651.46 414.149 1653.56 413.788 1655.4 413C1657.23 412.246 1658.81 411.229 1660.16 409.917C1661.5 408.605 1662.55 407.128 1663.24 405.455C1663.93 403.782 1664.32 402.044 1664.32 400.207C1664.32 398.37 1663.96 396.631 1663.24 394.958C1662.52 393.285 1661.5 391.809 1660.16 390.562C1658.81 389.283 1657.2 388.266 1655.4 387.479C1653.56 386.691 1651.46 386.298 1649.06 386.298H1621.76C1619.47 386.298 1617.37 386.691 1615.5 387.479C1613.63 388.266 1612.02 389.316 1610.67 390.562C1609.33 391.842 1608.28 393.318 1607.59 394.958C1606.9 396.598 1606.51 398.37 1606.51 400.207ZM1624.75 442.163V358.742H1647.39V442.163H1624.75Z" fill="white"/>
<path d="M1735.76 358.742C1740.06 358.742 1744.03 359.267 1747.67 360.284C1751.31 361.334 1754.5 362.974 1757.22 365.237C1759.91 367.501 1762.04 370.388 1763.58 373.865C1765.13 377.375 1765.91 381.574 1765.91 386.495C1765.91 391.907 1765.06 396.401 1763.35 399.977C1761.65 403.553 1759.38 406.407 1756.56 408.572C1753.74 410.704 1750.52 412.213 1746.92 413.099C1743.31 413.984 1739.6 414.411 1735.76 414.411H1708.1V395.352H1733C1734.74 395.352 1736.28 395.155 1737.66 394.761C1739.01 394.368 1740.09 393.777 1740.94 393.023C1741.76 392.268 1742.42 391.35 1742.91 390.234C1743.4 389.119 1743.63 387.905 1743.63 386.527C1743.63 383.673 1742.68 381.508 1740.84 380.032C1738.97 378.556 1736.38 377.834 1733.04 377.834H1710.39L1720.76 366.746V442.196H1698.35V358.775H1735.79L1735.76 358.742Z" fill="white"/>
<path d="M1773.2 400.472C1773.2 394.6 1774.32 389.056 1776.55 383.84C1778.78 378.624 1781.87 374.097 1785.84 370.194C1789.81 366.29 1794.56 363.206 1800.08 360.943C1805.59 358.679 1811.66 357.531 1818.26 357.531C1824.85 357.531 1831.02 358.679 1836.5 360.943C1841.98 363.206 1846.74 366.29 1850.74 370.194C1854.74 374.097 1857.86 378.624 1860.09 383.84C1862.32 389.056 1863.44 394.6 1863.44 400.472C1863.44 406.344 1862.32 411.888 1860.09 417.104C1857.86 422.32 1854.74 426.847 1850.74 430.75C1846.74 434.654 1841.98 437.738 1836.5 440.001C1831.02 442.265 1824.95 443.413 1818.26 443.413C1811.56 443.413 1805.59 442.265 1800.08 440.001C1794.56 437.738 1789.81 434.654 1785.84 430.75C1781.87 426.847 1778.75 422.32 1776.55 417.104C1774.32 411.888 1773.2 406.344 1773.2 400.472ZM1841.03 400.603C1841.03 397.421 1840.47 394.403 1839.35 391.549C1838.24 388.695 1836.66 386.235 1834.63 384.168C1832.6 382.102 1830.17 380.461 1827.35 379.215C1824.52 377.968 1821.47 377.378 1818.22 377.378C1814.97 377.378 1811.79 378.001 1808.97 379.215C1806.15 380.461 1803.75 382.102 1801.82 384.168C1799.88 386.235 1798.34 388.695 1797.22 391.484C1796.11 394.305 1795.55 397.29 1795.55 400.472C1795.55 403.654 1796.11 406.639 1797.22 409.46C1798.34 412.282 1799.88 414.709 1801.88 416.776C1803.88 418.842 1806.28 420.483 1809.1 421.729C1811.92 422.976 1815.01 423.566 1818.35 423.566C1821.7 423.566 1824.75 422.943 1827.54 421.729C1830.33 420.483 1832.69 418.842 1834.7 416.776C1836.7 414.709 1838.24 412.282 1839.35 409.46C1840.47 406.639 1841.03 403.687 1841.03 400.57V400.603Z" fill="white"/>
<path d="M1912.73 401.525L1911.64 396.768C1917.85 396.932 1922.8 397.785 1926.54 399.327C1930.28 400.869 1933.17 402.739 1935.17 404.937C1937.2 407.135 1938.52 409.431 1939.17 411.858C1939.8 414.286 1940.13 416.517 1940.13 418.583C1940.13 423.274 1939.21 427.145 1937.37 430.196C1935.53 433.247 1933.23 435.674 1930.45 437.479C1927.66 439.283 1924.64 440.497 1921.39 441.185C1918.14 441.874 1915.02 442.202 1912.1 442.202H1872.4V358.781H1913.05C1917.52 358.781 1921.29 359.339 1924.37 360.454C1927.46 361.57 1930.02 363.079 1932.02 364.981C1934.02 366.884 1935.47 369.082 1936.38 371.542C1937.3 374.002 1937.76 376.594 1937.76 379.284C1937.76 383.024 1937.07 386.238 1935.66 388.928C1934.28 391.618 1932.41 393.849 1930.05 395.588C1927.72 397.326 1925.03 398.671 1922.08 399.655C1919.12 400.639 1915.97 401.23 1912.73 401.558V401.525ZM1894.71 436.462L1889.82 423.11H1909.02C1911.87 423.11 1914.07 422.487 1915.58 421.273C1917.09 420.027 1917.84 418.288 1917.84 415.959C1917.84 413.499 1917.02 411.662 1915.35 410.481C1913.68 409.3 1911.61 408.676 1909.15 408.676H1890.31L1889.36 391.159H1908.07C1910.36 391.159 1912.23 390.536 1913.61 389.322C1914.99 388.075 1915.71 386.402 1915.71 384.27C1915.71 383.319 1915.55 382.433 1915.19 381.646C1914.83 380.858 1914.3 380.17 1913.64 379.612C1912.96 379.054 1912.17 378.628 1911.22 378.3C1910.27 377.972 1909.18 377.808 1908 377.808H1888.94L1894.78 364.456V436.462H1894.71Z" fill="white"/>
<path d="M1987.7 442.163H1950.62V358.742H1973.04V434.192L1962.31 423.104H1984.36C1987.7 423.104 1990.36 422.382 1992.33 420.906C1994.33 419.43 1995.32 417.265 1995.32 414.411C1995.32 413.066 1995.05 411.819 1994.53 410.704C1994 409.589 1993.28 408.67 1992.4 407.916C1991.48 407.161 1990.36 406.571 1988.98 406.177C1987.64 405.783 1986.1 405.587 1984.32 405.587H1960.01V386.527H1987.67C1991.25 386.527 1994.82 386.954 1998.4 387.839C2001.98 388.725 2005.19 390.234 2008.05 392.366C2010.9 394.499 2013.2 397.386 2014.97 400.961C2016.71 404.537 2017.6 409.031 2017.6 414.444C2017.6 419.364 2016.81 423.596 2015.27 427.073C2013.73 430.583 2011.56 433.437 2008.84 435.701C2006.11 437.964 2002.93 439.605 1999.29 440.654C1995.68 441.704 1991.81 442.196 1987.67 442.196L1987.7 442.163ZM2024.65 358.742H2046.93V442.163H2024.65V358.742Z" fill="white"/>
<path d="M2106.45 406.408L2106.95 391.614L2141.63 442.165H2115.64L2087.75 401.291H2109.93L2082.14 442.165H2055.3L2089.98 391.023L2089.49 406.146L2056.81 358.711H2083.02L2108.55 396.141H2086.5L2112.26 358.711H2139.43L2106.42 406.375L2106.45 406.408Z" fill="white"/>
<path d="M2167.12 358.742H2237.84V442.163H2215.43V367.435L2226.39 378.523H2178.58L2189.54 367.435V442.163H2167.12V358.742Z" fill="white"/>
<path d="M2288.14 358.742C2292.44 358.742 2296.41 359.267 2300.05 360.284C2303.7 361.334 2306.88 362.974 2309.6 365.237C2312.29 367.501 2314.43 370.388 2315.97 373.865C2317.51 377.375 2318.3 381.574 2318.3 386.495C2318.3 391.907 2317.44 396.401 2315.74 399.977C2314.03 403.553 2311.77 406.407 2308.95 408.572C2306.12 410.704 2302.91 412.213 2299.3 413.099C2295.69 413.984 2291.98 414.411 2288.14 414.411H2260.48V395.352H2285.39C2287.12 395.352 2288.67 395.155 2290.04 394.761C2291.39 394.368 2292.47 393.777 2293.33 393.023C2294.15 392.268 2294.8 391.35 2295.3 390.234C2295.79 389.119 2296.02 387.905 2296.02 386.527C2296.02 383.673 2295.07 381.508 2293.23 380.032C2291.36 378.556 2288.77 377.834 2285.42 377.834H2262.78L2273.15 366.746V442.196H2250.73V358.775H2288.17L2288.14 358.742Z" fill="white"/>
<path d="M2325.58 400.472C2325.58 394.6 2326.69 389.056 2328.93 383.84C2331.16 378.624 2334.24 374.097 2338.21 370.194C2342.18 366.29 2346.94 363.206 2352.45 360.943C2357.96 358.679 2364.04 357.531 2370.63 357.531C2377.23 357.531 2383.4 358.679 2388.88 360.943C2394.36 363.206 2399.11 366.29 2403.12 370.194C2407.12 374.097 2410.24 378.624 2412.47 383.84C2414.7 389.056 2415.82 394.6 2415.82 400.472C2415.82 406.344 2414.7 411.888 2412.47 417.104C2410.24 422.32 2407.12 426.847 2403.12 430.75C2399.11 434.654 2394.36 437.738 2388.88 440.001C2383.4 442.265 2377.33 443.413 2370.63 443.413C2363.94 443.413 2357.96 442.265 2352.45 440.001C2346.94 437.738 2342.18 434.654 2338.21 430.75C2334.24 426.847 2331.12 422.32 2328.93 417.104C2326.69 411.888 2325.58 406.344 2325.58 400.472ZM2393.4 400.603C2393.4 397.421 2392.85 394.403 2391.73 391.549C2390.61 388.695 2389.04 386.235 2387 384.168C2384.97 382.102 2382.54 380.461 2379.72 379.215C2376.9 377.968 2373.85 377.378 2370.6 377.378C2367.35 377.378 2364.17 378.001 2361.34 379.215C2358.52 380.461 2356.13 382.102 2354.19 384.168C2352.26 386.235 2350.71 388.695 2349.6 391.484C2348.48 394.305 2347.92 397.29 2347.92 400.472C2347.92 403.654 2348.48 406.639 2349.6 409.46C2350.71 412.282 2352.26 414.709 2354.26 416.776C2356.26 418.842 2358.65 420.483 2361.48 421.729C2364.3 422.976 2367.38 423.566 2370.73 423.566C2374.08 423.566 2377.13 422.943 2379.92 421.729C2382.71 420.483 2385.07 418.842 2387.07 416.776C2389.07 414.709 2390.61 412.282 2391.73 409.46C2392.85 406.639 2393.4 403.687 2393.4 400.57V400.603Z" fill="white"/>
<path d="M2425.86 400.207C2425.86 393.843 2427.14 388.561 2429.67 384.362C2432.19 380.163 2435.34 376.785 2439.02 374.226C2442.73 371.7 2446.63 369.863 2450.76 368.813C2454.9 367.731 2458.61 367.206 2461.86 367.206H2492.6C2495.78 367.206 2499.46 367.731 2503.63 368.813C2507.79 369.896 2511.7 371.7 2515.37 374.226C2519.02 376.785 2522.13 380.131 2524.66 384.362C2527.19 388.561 2528.47 393.876 2528.47 400.207C2528.47 406.538 2527.19 411.852 2524.66 416.051C2522.1 420.25 2519.02 423.629 2515.37 426.188C2511.73 428.746 2507.79 430.551 2503.63 431.6C2499.46 432.683 2495.78 433.208 2492.6 433.208H2461.86C2458.61 433.208 2454.9 432.683 2450.76 431.6C2446.63 430.518 2442.73 428.714 2439.02 426.188C2435.31 423.662 2432.19 420.283 2429.67 416.051C2427.11 411.852 2425.86 406.571 2425.86 400.207ZM2448.27 400.207C2448.27 402.044 2448.63 403.782 2449.35 405.455C2450.08 407.128 2451.09 408.605 2452.44 409.917C2453.78 411.229 2455.39 412.246 2457.26 413C2459.13 413.755 2461.2 414.149 2463.53 414.149H2490.83C2493.23 414.149 2495.33 413.788 2497.16 413C2499 412.246 2500.58 411.229 2501.92 409.917C2503.27 408.605 2504.32 407.128 2505.01 405.455C2505.69 403.782 2506.09 402.044 2506.09 400.207C2506.09 398.37 2505.73 396.631 2505.01 394.958C2504.28 393.285 2503.27 391.809 2501.92 390.562C2500.58 389.283 2498.97 388.266 2497.16 387.479C2495.33 386.691 2493.23 386.298 2490.83 386.298H2463.53C2461.23 386.298 2459.13 386.691 2457.26 387.479C2455.39 388.266 2453.78 389.316 2452.44 390.562C2451.09 391.842 2450.04 393.318 2449.35 394.958C2448.66 396.598 2448.27 398.37 2448.27 400.207ZM2466.52 442.163V358.742H2489.16V442.163H2466.52Z" fill="white"/>
<path d="M2540.09 442.163V358.742H2602.43V377.801H2562.5V391.612H2598.49V409.129H2562.5V423.071H2602.43V442.131H2540.09V442.163Z" fill="white"/>
<path d="M2668.15 359.537C2672.52 360.849 2676.45 362.686 2679.96 365.081C2683.48 367.476 2686.53 370.297 2689.15 373.544C2691.78 376.792 2693.88 380.433 2695.49 384.403L2675.34 392.144C2674.55 389.914 2673.43 387.913 2672.06 386.141C2670.68 384.337 2669.07 382.795 2667.3 381.483C2665.53 380.171 2663.49 379.154 2661.23 378.432C2658.96 377.71 2656.6 377.35 2654.14 377.35C2650.89 377.35 2647.87 377.973 2645.08 379.187C2642.29 380.433 2639.9 382.074 2637.86 384.14C2635.83 386.207 2634.26 388.667 2633.11 391.455C2631.96 394.277 2631.37 397.262 2631.37 400.444C2631.37 403.626 2631.96 406.611 2633.11 409.432C2634.26 412.253 2635.86 414.681 2637.86 416.748C2639.9 418.814 2642.29 420.454 2645.08 421.701C2647.87 422.947 2650.89 423.538 2654.14 423.538C2656.7 423.538 2659.06 423.21 2661.29 422.521C2663.52 421.832 2665.53 420.881 2667.3 419.667C2669.07 418.421 2670.65 416.912 2672.02 415.14C2673.37 413.336 2674.48 411.302 2675.37 409.006L2695.52 416.748C2693.94 420.717 2691.81 424.325 2689.18 427.606C2686.56 430.853 2683.51 433.675 2680 436.004C2676.49 438.333 2672.55 440.17 2668.18 441.416C2663.82 442.696 2659.13 443.319 2654.11 443.319C2647.58 443.319 2641.54 442.171 2635.99 439.907C2630.42 437.644 2625.63 434.56 2621.62 430.657C2617.62 426.753 2614.5 422.226 2612.34 417.01C2610.14 411.794 2609.05 406.25 2609.05 400.378C2609.05 394.506 2610.14 388.962 2612.34 383.746C2614.53 378.531 2617.62 374.004 2621.62 370.1C2625.63 366.196 2630.42 363.113 2635.99 360.849C2641.57 358.586 2647.61 357.438 2654.11 357.438C2659.13 357.438 2663.82 358.094 2668.18 359.406L2668.15 359.537Z" fill="white"/>
<path d="M2760.29 359.537C2764.66 360.849 2768.59 362.686 2772.11 365.081C2775.62 367.476 2778.67 370.297 2781.29 373.544C2783.92 376.792 2786.02 380.433 2787.63 384.403L2767.48 392.144C2766.69 389.914 2765.58 387.913 2764.2 386.141C2762.82 384.337 2761.21 382.795 2759.44 381.483C2757.67 380.171 2755.63 379.154 2753.37 378.432C2751.1 377.71 2748.74 377.35 2746.28 377.35C2743.03 377.35 2740.01 377.973 2737.22 379.187C2734.44 380.433 2732.04 382.074 2730.01 384.14C2727.97 386.207 2726.4 388.667 2725.25 391.455C2724.1 394.277 2723.51 397.262 2723.51 400.444C2723.51 403.626 2724.1 406.611 2725.25 409.432C2726.4 412.253 2728 414.681 2730.01 416.748C2732.04 418.814 2734.44 420.454 2737.22 421.701C2740.01 422.947 2743.03 423.538 2746.28 423.538C2748.84 423.538 2751.2 423.21 2753.43 422.521C2755.67 421.832 2757.67 420.881 2759.44 419.667C2761.21 418.421 2762.79 416.912 2764.16 415.14C2765.51 413.336 2766.63 411.302 2767.51 409.006L2787.66 416.748C2786.08 420.717 2783.95 424.325 2781.33 427.606C2778.7 430.853 2775.65 433.675 2772.14 436.004C2768.63 438.333 2764.69 440.17 2760.32 441.416C2755.96 442.696 2751.27 443.319 2746.25 443.319C2739.72 443.319 2733.68 442.171 2728.13 439.907C2722.56 437.644 2717.77 434.56 2713.76 430.657C2709.76 426.753 2706.64 422.226 2704.48 417.01C2702.28 411.794 2701.2 406.25 2701.2 400.378C2701.2 394.506 2702.28 388.962 2704.48 383.746C2706.68 378.531 2709.76 374.004 2713.76 370.1C2717.77 366.196 2722.56 363.113 2728.13 360.849C2733.71 358.586 2739.75 357.438 2746.25 357.438C2751.27 357.438 2755.96 358.094 2760.32 359.406L2760.29 359.537Z" fill="white"/>
<path d="M2801.44 430.026L2848.17 358.742H2869.76V442.163H2847.48V369.699L2863.59 371.372L2817.22 442.163H2795.63V358.742H2818.04V430.747L2801.47 430.026H2801.44Z" fill="white"/>
<path d="M2888.96 430.029L2935.68 358.746H2957.27V442.167H2934.99V369.702L2951.1 371.375L2904.74 442.167H2883.15V358.746H2905.56V430.751L2888.99 430.029H2888.96ZM2900.64 342.18H2939.85V355.039H2900.64V342.18Z" fill="white"/>
</svg>
